# xmcd
#
# Track frame offsets: 
#        150
#        11043
#        23528
#        38068
#        49991
#        62346
#        75319
#        86269
#        99092
#        110030
#        122630
#        134780
#
# Disc length: 1935 seconds
#
# Revision: 0
# Processed by: cddbd v1.5.2PL0 Copyright (c) Steve Scherf et al.
# Submitted via: ExactAudioCopy v0.99pb3
#
DISCID=8b078d0c
DTITLE=Freddy King - Bossa Nova And Blues
DYEAR=1996
DGENRE=Blues
TTITLE0=(I'd Love To) Make Love To You
TTITLE1=You're Barkin' Up The Wrong Tree
TTITLE2=Look Ma, I'm Cryin'
TTITLE3=It Hurts To Be In Love
TTITLE4=You Walked In
TTITLE5=The Bossa Nova Watusi Twist
TTITLE6=Is My Baby Mad At Me
TTITLE7=Someday, After Awhile (You'll Be Sorry)
TTITLE8=One Hundred Years
TTITLE9=Bossa Nova Blues
TTITLE10=The Welfare (Turns Its Back On You)
TTITLE11=Walk Down That Ailse (Honey Chile)
EXTD=
EXTT0=
EXTT1=
EXTT2=
EXTT3=
EXTT4=
EXTT5=
EXTT6=
EXTT7=
EXTT8=
EXTT9=
EXTT10=
EXTT11=
PLAYORDER=
